<?xml version="1.0" encoding="utf-8"?>
<!-- Generator: Adobe Illustrator 16.0.0, SVG Export Plug-In . SVG Version: 6.00 Build 0)  -->
<!DOCTYPE svg PUBLIC "-//W3C//DTD SVG 1.1//EN" "http://www.w3.org/Graphics/SVG/1.1/DTD/svg11.dtd">
<svg version="1.1" xmlns="http://www.w3.org/2000/svg" xmlns:xlink="http://www.w3.org/1999/xlink" x="0px" y="0px" width="115px"
	 height="40px" viewBox="0 0 115 40" enable-background="new 0 0 115 40" xml:space="preserve">
<g id="Layer_1" display="none">
	<g id="Layer_1_1_" display="inline">
		<g>
			<path d="M13.3,8c4.2,0,7.4,2.1,8.9,5.1L18,16c-1-2.5-3.1-3.2-4.8-3.2c-3.8,0-5.6,3.6-5.6,7c0,3.7,2.2,7.101,5.7,7.101
				c1.8,0,3.9-0.9,4.8-3.2l4.4,2.6c-1.4,3.5-5.7,5.4-9.4,5.4C6.6,31.7,2,25.6,2,19.6C2.1,14,6.2,8,13.3,8z"/>
			<path d="M23.7,19.8C23.7,13.6,28.4,8,34.9,8C41.6,8,46,14,46,19.9c0,6.2-4.7,11.8-11.2,11.8C28.2,31.8,23.7,25.9,23.7,19.8z
				 M34.9,27c3.8,0,5.6-3.6,5.6-7.1c0-3.6-2-7-5.7-7c-3.8,0-5.7,3.5-5.7,7.1C29.2,23.5,31.2,27,34.9,27z"/>
			<path d="M49.2,31.6V8.2h10.5c4.399,0,7.6,4,7.6,7.9c0,2.9-1.5,5.5-3.8,6.8l5.4,8.699H62.8L58.1,24h-3.5v7.5h-5.4V31.6z
				 M54.6,19.3h4.9c1.3,0,2.3-1.4,2.3-3.2c0-1.9-1.3-3.2-2.5-3.2h-4.8v6.4H54.6z"/>
			<path d="M71.6,31.6V8.2h10c4.5,0,7.601,4,7.601,7.9c0,4.1-3,7.9-7.5,7.9H77v7.5h-5.4V31.6z M77,19.3h4.4c1.3,0,2.3-1.1,2.3-3.2
				c0-2.2-1.3-3.2-2.5-3.2H77V19.3z"/>
			<path d="M90.7,19.8c0-6.2,4.7-11.8,11.2-11.8C108.6,8,113,14,113,19.9c0,6.2-4.7,11.8-11.2,11.8C95.2,31.8,90.7,25.9,90.7,19.8z
				 M101.9,27c3.8,0,5.6-3.6,5.6-7.1c0-3.6-2-7-5.7-7c-3.8,0-5.7,3.5-5.7,7.1C96.2,23.5,98.2,27,101.9,27z"/>
		</g>
	</g>
	<g id="Layer_2" display="inline">
	</g>
</g>
<g id="Layer_2_1_" display="none">
	<g display="inline">
		<path d="M16.559,2.822c4.63,0,8.23,2.314,9.884,5.695l-4.63,3.233c-1.065-2.755-3.491-3.564-5.401-3.564
			c-4.262,0-6.283,4.042-6.283,7.826c0,4.152,2.499,7.899,6.357,7.899c1.984,0,4.373-0.991,5.328-3.601l4.96,2.903
			c-1.543,3.857-6.32,6.062-10.435,6.062c-7.238,0-12.346-6.798-12.346-13.485C3.993,9.473,8.623,2.822,16.559,2.822z"/>
		<path d="M28.023,19.43c0-5.328,3.748-10.031,10.325-10.031c6.541,0,10.325,4.703,10.325,10.031c0,5.291-3.748,9.994-10.325,9.994
			C31.771,29.424,28.023,24.721,28.023,19.43z M38.348,24.464c2.425,0,4.262-2.058,4.262-5.034c0-3.013-1.837-5.034-4.262-5.034
			c-2.425,0-4.299,2.058-4.299,5.034C34.049,22.443,35.887,24.464,38.348,24.464z"/>
		<path d="M63.738,14.8c-2.829,0.037-5.291,0.918-6.356,2.682v11.574h-5.879V9.767h5.401v3.895c1.36-2.572,3.564-4.115,5.916-4.188
			c0.515,0,0.735,0,0.919,0.037V14.8z"/>
		<path d="M72.115,25.934v10.949h-5.879V9.767h5.144v3.123c1.396-2.168,3.527-3.491,6.431-3.491c5.181,0,9.002,4.373,9.002,9.958
			c0,5.731-3.527,10.067-8.341,10.067C75.568,29.424,73.327,28.102,72.115,25.934z M80.786,19.319c0-2.829-1.91-4.923-4.63-4.923
			c-1.616,0-3.232,1.029-4.041,2.646v3.968c0.771,1.947,2.535,3.454,4.336,3.454C78.986,24.464,80.786,22.075,80.786,19.319z"/>
		<path d="M88.576,19.43c0-5.328,3.748-10.031,10.325-10.031c6.54,0,10.324,4.703,10.324,10.031c0,5.291-3.747,9.994-10.324,9.994
			S88.576,24.721,88.576,19.43z M98.901,24.464c2.425,0,4.262-2.058,4.262-5.034c0-3.013-1.837-5.034-4.262-5.034
			c-2.426,0-4.3,2.058-4.3,5.034C94.602,22.443,96.439,24.464,98.901,24.464z"/>
	</g>
</g>
<g id="Layer_2_copy">
	<g>
		<path d="M16.412,2.822c4.63,0,8.304,2.278,9.958,5.695l-5.475,3.895c-0.845-2.535-3.013-3.233-4.63-3.233
			c-3.601,0-5.181,3.564-5.181,6.834c0,3.638,1.947,6.908,5.254,6.908c1.653,0,3.711-0.846,4.446-3.197l5.842,3.491
			c-1.47,3.857-6.283,6.062-10.435,6.062c-7.275,0-12.382-6.798-12.382-13.485C3.81,9.436,8.476,2.822,16.412,2.822z"/>
		<path d="M27.51,19.394c0-5.328,3.674-10.031,10.582-10.031s10.582,4.703,10.582,10.031c0,5.291-3.674,10.03-10.582,10.03
			S27.51,24.685,27.51,19.394z M38.092,23.545c1.984,0,3.417-1.58,3.417-4.151c0-2.572-1.433-4.152-3.417-4.152
			c-1.984,0-3.417,1.58-3.417,4.152C34.675,21.965,36.107,23.545,38.092,23.545z"/>
		<path d="M64.253,15.682c-2.683,0-5.07,0.551-6.136,1.911v11.464h-6.981V9.729h6.394v3.675c1.359-2.572,3.527-4.042,5.842-4.042
			c0.515,0,0.698,0,0.882,0.037V15.682z"/>
		<path d="M73.439,26.19v10.692h-6.981V9.729h6.062v2.903c1.359-2.094,3.344-3.27,6.246-3.27c5.145,0,8.929,4.226,8.929,9.957
			c0,5.806-3.49,10.104-8.23,10.104C76.673,29.424,74.541,28.285,73.439,26.19z M80.567,19.283c0-2.425-1.543-4.042-3.821-4.042
			c-1.322,0-2.389,0.661-3.307,1.984v3.344c0.661,1.689,2.131,2.976,3.601,2.976C79.061,23.545,80.567,21.635,80.567,19.283z"/>
		<path d="M89.129,19.394c0-5.328,3.674-10.031,10.582-10.031c6.907,0,10.582,4.703,10.582,10.031c0,5.291-3.675,10.03-10.582,10.03
			C92.803,29.424,89.129,24.685,89.129,19.394z M99.711,23.545c1.984,0,3.417-1.58,3.417-4.151c0-2.572-1.433-4.152-3.417-4.152
			s-3.417,1.58-3.417,4.152C96.294,21.965,97.727,23.545,99.711,23.545z"/>
	</g>
</g>
</svg>
